<?xml version="1.0" ?><!DOCTYPE svg  PUBLIC '-//W3C//DTD SVG 1.1//EN'  'http://www.w3.org/Graphics/SVG/1.1/DTD/svg11.dtd'><svg height="43.3492mm" style="shape-rendering:geometricPrecision; text-rendering:geometricPrecision; image-rendering:optimizeQuality; fill-rule:evenodd; clip-rule:evenodd" version="1.1" viewBox="0 0 4335 4335" width="43.3492mm" xml:space="preserve" xmlns="http://www.w3.org/2000/svg" xmlns:xlink="http://www.w3.org/1999/xlink"><defs><style type="text/css">
   <![CDATA[
    .fil0 {fill:rgba(35, 85, 105, 0.9);}
   ]]>
  </style></defs><g id="Layer_x0020_1"><path class="fil0" d="M2182 100c786,0 1422,637 1422,1422 0,24 -1,48 -2,71l0 0c0,0 18,409 -354,1196 -314,663 -874,1248 -1043,1416 0,0 -25,15 -25,15 0,0 -25,-15 -25,-15 -169,-168 -729,-753 -1043,-1416 -373,-787 -354,-1196 -354,-1196l2 -1c-1,-23 -2,-47 -2,-71 0,-786 637,-1422 1422,-1422l2 1zm-20 392c236,0 427,154 427,343 0,174 -162,318 -371,340l0 1191 29 0 101 0c20,0 36,16 36,36l0 0c0,20 -16,36 -36,36l-101 0 0 31c0,8 -1,15 -4,22l28 0 76 0 0 0c8,0 12,4 16,10 22,4 39,23 39,46l0 0c0,26 -21,47 -47,47l-8 0 -23 0 -107 0 0 53 98 0c20,0 36,16 36,36l0 0c0,20 -16,36 -36,36l0 31c0,8 -1,15 -4,22l35 0c20,0 36,16 36,36l0 0c0,20 -16,36 -36,36l-170 0c-2,0 -5,0 -7,-1 -3,0 -6,1 -9,1l0 0c-31,0 -56,-25 -56,-56l0 -1612c-209,-22 -371,-166 -371,-340 0,-189 191,-343 427,-343zm107 209c-23,-66 -62,-109 -107,-109 -46,0 -86,46 -109,115 -8,5 -16,10 -23,15 -51,28 -121,68 -121,113 0,36 47,70 92,96 15,19 35,36 58,48 23,60 61,99 103,99 42,0 80,-39 103,-99 23,-12 43,-29 58,-48 45,-26 92,-60 92,-96 0,-37 -50,-72 -96,-98 -14,-14 -31,-26 -50,-36zm-297 137l0 0 0 -3c0,-1 0,-3 0,-4l0 4 0 3zm0 -7c0,-1 0,-2 0,-4 0,1 0,2 0,4z"/></g></svg>